Coordinates
version=1
nRows=43
nColumns=12
inDegrees=yes

Units are S.I. units (second, meters, Newtons, ...)
Angles are in degrees

endheader
time	SC_y	SC_z	SC_x	AC_y	AC_z	AC_x	GH_y	GH_z	GH_yy	EL_x	PS_y
       0.0              -55.44          24.43          80.88          61.66          9.499         -5.928          9.107          42.07         -140.0          59.93          108.8
   0.04019              -55.43          24.42          80.88          61.66          9.499         -5.926          9.101          42.07         -140.0          59.94          108.8
   0.08038              -55.43          24.42          80.87          61.65          9.499         -5.924          9.096          42.07         -140.0          59.95          108.8
    0.1206              -55.43          24.41          80.86          61.65          9.499         -5.923          9.089          42.07         -139.9          59.96          108.8
    0.1608              -55.43          24.41          80.85          61.65          9.498         -5.921          9.083          42.07         -139.9          59.96          108.8
    0.2009              -55.43           24.4          80.84          61.65          9.498         -5.918          9.076          42.07         -139.9          59.97          108.8
    0.2411              -55.43           24.4          80.83          61.65          9.498         -5.916          9.069          42.06         -139.9          59.98          108.7
    0.2813              -55.43          24.39          80.82          61.65          9.498         -5.914          9.061          42.06         -139.9          59.99          108.7
    0.3215              -55.43          24.38          80.81          61.65          9.498         -5.911          9.052          42.06         -139.9           60.0          108.7
    0.3617              -55.43          24.38          80.79          61.65          9.497         -5.908          9.043          42.06         -139.8          60.01          108.7
    0.4019              -55.43          24.37          80.78          61.65          9.497         -5.905          9.034          42.06         -139.8          60.03          108.7
    0.4421              -55.43          24.36          80.77          61.65          9.497         -5.902          9.023          42.06         -139.8          60.04          108.7
    0.4823              -55.42          24.35          80.75          61.65          9.497         -5.899          9.012          42.05         -139.8          60.05          108.7
    0.5225              -55.42          24.34          80.73          61.64          9.496         -5.895            9.0          42.05         -139.7          60.07          108.7
    0.5627              -55.42          24.33          80.72          61.64          9.496         -5.891          8.986          42.05         -139.7          60.09          108.7
    0.6028              -55.42          24.32           80.7          61.64          9.496         -5.887          8.972          42.05         -139.7           60.1          108.7
     0.643              -55.42          24.31          80.67          61.64          9.495         -5.882          8.956          42.04         -139.6          60.12          108.7
    0.6832              -55.42           24.3          80.65          61.64          9.495         -5.877           8.94          42.04         -139.6          60.15          108.7
    0.7234              -55.41          24.28          80.62          61.63          9.494         -5.871          8.921          42.04         -139.6          60.17          108.7
    0.7636              -55.41          24.27           80.6          61.63          9.494         -5.865          8.901          42.04         -139.5           60.2          108.6
    0.8038              -55.41          24.25          80.57          61.63          9.493         -5.858          8.878          42.03         -139.5          60.22          108.6
     0.844              -55.41          24.23          80.53          61.63          9.493         -5.851          8.854          42.03         -139.4          60.25          108.6
    0.8842               -55.4          24.21          80.49          61.62          9.492         -5.842          8.827          42.02         -139.4          60.29          108.6
    0.9244               -55.4          24.19          80.45          61.62          9.491         -5.833          8.797          42.02         -139.3          60.33          108.6
    0.9646               -55.4          24.16           80.4          61.62           9.49         -5.823          8.764          42.01         -139.2          60.37          108.6
     1.005              -55.39          24.13          80.35          61.61          9.489         -5.812          8.726           42.0         -139.1          60.42          108.5
     1.045              -55.39           24.1           80.3          61.61          9.488         -5.799          8.685           42.0         -139.1          60.47          108.5
     1.085              -55.38          24.07          80.23           61.6          9.487         -5.785          8.638          41.99         -138.9          60.53          108.5
     1.125              -55.38          24.03          80.16           61.6          9.486         -5.768          8.585          41.98         -138.8           60.6          108.5
     1.166              -55.37          23.98          80.07          61.59          9.484          -5.75          8.525          41.97         -138.7          60.67          108.4
     1.206              -55.36          23.93          79.98          61.58          9.483         -5.729          8.456          41.96         -138.5          60.76          108.4
     1.246              -55.35          23.87          79.87          61.57          9.481         -5.705          8.377          41.94         -138.4          60.86          108.3
     1.286              -55.34           23.8          79.74          61.56          9.478         -5.677          8.286          41.93         -138.2          60.97          108.3
     1.326              -55.33          23.72          79.59          61.55          9.476         -5.645          8.181          41.91         -137.9          61.11          108.2
     1.366              -55.31          23.62          79.42          61.53          9.473         -5.607          8.057          41.89         -137.7          61.27          108.1
     1.407               -55.3          23.51          79.22          61.52          9.469         -5.563          7.911          41.86         -137.3          61.45          108.0
     1.447              -55.28          23.38          78.98           61.5          9.465          -5.51          7.738          41.83         -137.0          61.67          107.9
     1.487              -55.25          23.22          78.69          61.47          9.459         -5.447          7.531          41.79         -136.5          61.93          107.8
     1.527              -55.22          23.03          78.34          61.44          9.453          -5.37          7.279          41.75         -136.0          62.25          107.7
     1.567              -55.19          22.79          77.91          61.41          9.445         -5.276          6.973          41.69         -135.3          62.64          107.5
     1.608              -55.14           22.5          77.38          61.36          9.436         -5.161          6.594          41.63         -134.4          63.12          107.2
     1.648              -55.09          22.14          76.72          61.31          9.424         -5.016          6.122          41.54         -133.4          63.72          107.0
     1.688              -55.02          21.69          75.89          61.24          9.409         -4.835          5.527          41.44         -132.1          64.48          106.6
